<svg xmlns="http://www.w3.org/2000/svg" width="170" height="24" viewBox="0 0 170 24" fill="none"><path d="M12.0746 5.26083H7.72116L1.65121 19.7416C0.866507 21.6136 2.24144 23.6808 4.27128 23.6808L5.77718 19.8211H14.0186L15.5518 23.6808H19.8231L12.0746 5.26083ZM12.7317 16.3607H7.06404L9.91156 9.30683L12.7317 16.3607Z" fill="white"></path><path d="M30.8566 23.6808V5.26083H26.8044V23.6808H30.8566Z" fill="white"></path><path d="M43.3691 5.26083H39.4537V23.6808H43.3964V11.8356L47.9141 19.9808H50.3783L54.9234 11.8356V23.6808H58.8388V5.26083H54.9234L49.1462 15.0564L43.3691 5.26083Z" fill="white"></path><path d="M67.4241 5.26083V23.6808H81.1415V19.901H71.4763V5.26083H67.4241Z" fill="white"></path><path d="M98.6884 5.26083H94.335L86.6138 23.6808H90.8851L92.391 19.8211H100.632L102.166 23.6808H106.437L98.6884 5.26083ZM99.3455 16.3607H93.6779L96.5254 9.30683L99.3455 16.3607Z" fill="white"></path><path d="M125.383 14.524C127.163 14.0449 128.368 12.9003 128.368 10.2651C128.368 6.93779 126.013 5.26083 121.386 5.26083H113.418V23.6808H121.851C125.821 23.6808 128.915 22.27 128.915 18.6233C128.915 16.2542 127.628 15.0032 125.383 14.524ZM121.386 8.64137C123.357 8.64137 124.398 9.28021 124.398 10.8507C124.398 12.4212 123.275 12.9003 121.55 12.9003H117.47V8.64137H121.386ZM117.47 15.9082H121.879C124.151 15.9082 124.918 16.8132 124.918 18.1175C124.918 19.7146 123.85 20.3003 121.851 20.3003H117.47V15.9082Z" fill="white"></path><path d="M150.678 7.47016C149.117 5.81982 146.708 4.94141 143.723 4.94141H143.696C139.069 4.94141 135.92 6.8047 135.92 10.3982C135.92 12.6608 137.152 14.5773 140.301 15.3226L144.517 16.3341C146.105 16.7068 146.844 17.3722 146.844 18.4636C146.844 19.7413 145.695 20.5132 143.559 20.5132H143.531C141.368 20.5132 139.671 19.8211 138.439 17.665L135.126 20.0075C136.577 22.6427 139.424 24.0002 143.449 24.0002H143.477C147.83 24.0002 150.951 22.0038 150.951 18.5701C150.951 16.1212 149.966 13.6456 146.242 12.8737L142.573 12.0752C140.492 11.6493 139.999 11.037 139.999 10.2385C139.999 9.09388 141.341 8.42842 143.531 8.42842H143.559C145.64 8.42842 147.064 9.04065 148.323 10.3716L150.678 7.47016Z" fill="white"></path><rect x="161.374" width="3.59409" height="13.4118" fill="#46D6D5"></rect><rect x="170" y="4.94141" width="3.52941" height="13.6575" transform="rotate(90 170 4.94141)" fill="#46D6D5"></rect></svg>