<svg width="31" height="31" viewBox="0 0 31 31" fill="none" xmlns="http://www.w3.org/2000/svg">
<path d="M26.9618 25.5979C26.8791 25.4306 26.8072 25.2807 26.7352 25.1378C26.5158 24.7056 26.2928 24.2699 26.0733 23.8377C25.8071 23.3114 25.5445 22.7851 25.2784 22.2553C25.005 21.7115 24.7316 21.1712 24.4618 20.6275C24.1956 20.0977 23.9294 19.5679 23.6632 19.0381C23.3934 18.5013 23.1272 17.9645 22.8574 17.4277C22.5876 16.891 22.3143 16.3577 22.0445 15.8209C21.7783 15.2911 21.5121 14.7613 21.2459 14.2315C20.9689 13.6773 20.6883 13.1231 20.4077 12.5689C20.1451 12.046 19.8825 11.5197 19.6199 10.9969C19.3466 10.4531 19.0696 9.90588 18.7962 9.36213C18.53 8.83232 18.2638 8.30251 17.9976 7.77271C17.7278 7.23593 17.4616 6.69915 17.1918 6.16237C16.922 5.62211 16.6487 5.08533 16.3789 4.54507C16.1055 4.00132 15.8321 3.45408 15.5479 2.8929C15.5047 2.96959 15.4688 3.03233 15.4364 3.09507C15.2601 3.44363 15.0839 3.79567 14.904 4.14423C14.717 4.5137 14.5299 4.87968 14.3428 5.24915C14.1594 5.60816 13.9795 5.96718 13.7961 6.32619C13.6126 6.68521 13.4328 7.04422 13.2493 7.40323C13.0658 7.76225 12.886 8.12126 12.7025 8.48028C12.5191 8.83929 12.3392 9.1983 12.1557 9.55732C11.9795 9.90587 11.8032 10.2509 11.627 10.5995C11.4507 10.9481 11.2744 11.3001 11.0982 11.6487C10.9111 12.0181 10.7241 12.3841 10.537 12.7536C10.3571 13.1091 10.1773 13.4646 9.99743 13.8237C9.81397 14.1862 9.63051 14.5487 9.44705 14.9112C9.2636 15.2702 9.08374 15.6292 8.90028 15.9882C8.72761 16.3333 8.55135 16.6783 8.37868 17.0199C8.19882 17.3789 8.01537 17.738 7.83191 18.097C7.64845 18.456 7.46859 18.815 7.28513 19.174C7.10168 19.5365 6.91822 19.899 6.73476 20.2615C6.5585 20.6101 6.38223 20.9621 6.20597 21.3107C6.01892 21.6801 5.83186 22.0461 5.64481 22.4156C5.47214 22.7572 5.30307 23.0988 5.12681 23.4403C4.94335 23.8063 4.7563 24.1688 4.56924 24.5348C4.40017 24.8694 4.23111 25.204 4.06204 25.5421C4.05484 25.5526 4.04765 25.5631 4.02966 25.5875C2.51524 23.9632 1.4037 22.1228 0.731026 20.0419C-0.222233 17.0931 -0.243817 14.1304 0.669873 11.1711C1.43248 8.70335 2.77784 6.56321 4.68435 4.77163C7.22398 2.3875 10.2636 0.965384 13.7853 0.595913C17.5803 0.198558 21.084 1.0351 24.2388 3.11947C26.8503 4.84831 28.7533 7.15227 29.9116 10.007C31.1382 13.0255 31.3217 16.1241 30.4943 19.2681C29.8756 21.6488 28.6813 23.7471 26.9618 25.5979Z" fill="#47D8D7"/>
<path d="M15.5083 15.4654C15.8285 16.1102 16.1379 16.7271 16.4472 17.3441C16.5443 17.5393 16.6487 17.731 16.7458 17.9262C17.0408 18.5083 17.3321 19.0869 17.6235 19.669C17.8861 20.1918 18.1487 20.7181 18.4113 21.241C18.6811 21.7742 18.9473 22.3075 19.2171 22.8408C19.4797 23.3637 19.7423 23.89 20.0048 24.4128C20.2746 24.9461 20.5408 25.4794 20.8106 26.0127C21.0768 26.539 21.3394 27.0653 21.6056 27.5951C21.825 28.0308 22.0373 28.4665 22.2603 28.8988C22.2963 28.9719 22.2783 28.9998 22.2099 29.0277C21.7711 29.209 21.3394 29.4007 20.8934 29.568C20.289 29.7945 19.6703 29.9758 19.0372 30.1117C18.6847 30.1884 18.3321 30.2546 17.9796 30.3104C17.6199 30.3662 17.2566 30.408 16.8969 30.4533C16.7818 30.4673 16.663 30.4707 16.5443 30.4742C16.2853 30.4812 16.0299 30.4917 15.7709 30.4951C15.422 30.4986 15.0695 30.5056 14.7206 30.4917C14.3896 30.4777 14.0587 30.4533 13.7313 30.4115C13.2421 30.3453 12.7529 30.2756 12.2709 30.171C11.7241 30.0525 11.1809 29.9131 10.6449 29.7492C10.2097 29.6168 9.78519 29.439 9.36072 29.2717C9.15568 29.1915 8.96143 29.0939 8.75999 29.0068C8.68445 28.9754 8.67725 28.9371 8.71682 28.8674C8.9974 28.3201 9.27439 27.7729 9.55497 27.2257C9.74202 26.8597 9.92548 26.4972 10.1125 26.1312C10.2852 25.7861 10.4615 25.4411 10.6341 25.0995C10.8248 24.7265 11.0118 24.3501 11.2025 23.9771C11.3788 23.6286 11.555 23.2835 11.7313 22.9349C11.9183 22.5655 12.1054 22.1925 12.296 21.823C12.4723 21.4745 12.6486 21.1224 12.8248 20.7739C13.0119 20.4044 13.1989 20.0384 13.386 19.669C13.5695 19.3099 13.7493 18.9509 13.9328 18.5919C14.1162 18.2329 14.2961 17.8739 14.4795 17.5149C14.6666 17.1454 14.8572 16.7724 15.0443 16.403C15.1918 16.0997 15.3429 15.793 15.5083 15.4654Z" fill="#47D8D7"/>
</svg>
