<svg xmlns="http://www.w3.org/2000/svg" width="146" height="40" viewBox="0 0 146 40" fill="none"><g clip-path="url(#clip0_278_379)"><path d="M30.8979 8.24702C28.5368 7.14232 26.0122 6.33947 23.3728 5.88232C23.0487 6.46837 22.67 7.25662 22.4088 7.88367C19.6031 7.46172 16.8232 7.46172 14.069 7.88367C13.808 7.25662 13.4207 6.46837 13.0936 5.88232C10.4514 6.33947 7.92385 7.14527 5.56275 8.25287C0.80039 15.4494 -0.490607 22.4672 0.154893 29.3854C3.31354 31.7442 6.37465 33.1771 9.3841 34.1147C10.1271 33.0921 10.7899 32.005 11.3608 30.8593C10.2734 30.4461 9.23205 29.9363 8.24805 29.3444C8.5091 29.151 8.76445 28.9488 9.01115 28.7407C15.0128 31.5479 21.5338 31.5479 27.4639 28.7407C27.7134 28.9488 27.9688 29.151 28.2269 29.3444C27.24 29.9392 26.1958 30.449 25.1085 30.8622C25.6794 32.005 26.3393 33.095 27.0851 34.1176C30.0975 33.18 33.1614 31.7471 36.3201 29.3854C37.0775 21.3655 35.0262 14.4121 30.8979 8.24702ZM12.1784 25.1308C10.3767 25.1308 8.89925 23.4488 8.89925 21.4006C8.89925 19.3524 10.3452 17.6676 12.1784 17.6676C14.0117 17.6676 15.4891 19.3495 15.4576 21.4006C15.4604 23.4488 14.0117 25.1308 12.1784 25.1308ZM24.2966 25.1308C22.4949 25.1308 21.0175 23.4488 21.0175 21.4006C21.0175 19.3524 22.4634 17.6676 24.2966 17.6676C26.1298 17.6676 27.6073 19.3495 27.5758 21.4006C27.5758 23.4488 26.1298 25.1308 24.2966 25.1308Z" fill="white"></path><path d="M49.0146 13.0854H56.8465C58.7345 13.0854 60.3295 13.3872 61.638 13.9879C62.943 14.5886 63.9215 15.4266 64.57 16.4991C65.218 17.5715 65.545 18.7993 65.545 20.1823C65.545 21.5361 65.2065 22.7639 64.5295 23.8626C63.8525 24.9644 62.8225 25.8347 61.437 26.4764C60.0515 27.1181 58.3355 27.4404 56.2845 27.4404H49.0146V13.0854ZM56.204 23.7923C57.475 23.7923 58.4535 23.4671 59.136 22.8195C59.819 22.169 60.1605 21.2841 60.1605 20.1618C60.1605 19.1216 59.856 18.2923 59.248 17.6711C58.64 17.0499 57.719 16.7364 56.488 16.7364H54.038V23.7923H56.204Z" fill="white"></path><path d="M77.2704 27.423C76.1859 27.1359 75.2074 26.7198 74.3384 26.1718V22.767C74.9954 23.2856 75.8759 23.7134 76.9804 24.0504C78.0849 24.3844 79.1524 24.5514 80.1849 24.5514C80.6669 24.5514 81.0314 24.487 81.2779 24.358C81.5249 24.2291 81.6484 24.0738 81.6484 23.8951C81.6484 23.69 81.5824 23.52 81.4474 23.3823C81.3124 23.2446 81.0514 23.1303 80.6644 23.0336L78.2544 22.4798C76.8744 22.1516 75.8959 21.6974 75.3139 21.1143C74.7314 20.5341 74.4414 19.7723 74.4414 18.8288C74.4414 18.0347 74.6939 17.3461 75.2049 16.7571C75.7124 16.1682 76.4354 15.714 77.3734 15.3946C78.3119 15.0723 79.4074 14.9111 80.6669 14.9111C81.7914 14.9111 82.8214 15.0342 83.7599 15.2803C84.6979 15.5265 85.4724 15.84 86.0894 16.2238V19.4441C85.4579 19.0603 84.7349 18.7585 83.9089 18.5299C83.0854 18.3043 82.2394 18.1929 81.3669 18.1929C80.1074 18.1929 79.4794 18.4127 79.4794 18.8493C79.4794 19.0544 79.5769 19.2068 79.7719 19.3093C79.9669 19.4119 80.3254 19.5174 80.8449 19.6287L82.8529 19.9979C84.1644 20.2294 85.1424 20.6367 85.7849 21.2169C86.4279 21.7971 86.7489 22.6556 86.7489 23.7925C86.7489 25.0378 86.2184 26.0253 85.1539 26.7579C84.0894 27.4904 82.5804 27.8567 80.6239 27.8567C79.4734 27.8538 78.3549 27.7102 77.2704 27.423Z" fill="white"></path><path d="M91.4891 26.9918C90.3391 26.4175 89.4696 25.6381 88.8901 24.6535C88.3106 23.669 88.0181 22.5614 88.0181 21.3307C88.0181 20.1 88.3191 18.9983 88.9216 18.0284C89.5241 17.0585 90.4076 16.2966 91.5726 15.7428C92.7371 15.189 94.1286 14.9136 95.7496 14.9136C97.7576 14.9136 99.4246 15.3443 100.75 16.2058V19.9594C100.283 19.6312 99.7371 19.3645 99.1146 19.1594C98.4921 18.9543 97.8266 18.8517 97.1151 18.8517C95.8701 18.8517 94.8976 19.0832 94.1946 19.5491C93.4916 20.015 93.1391 20.6216 93.1391 21.3746C93.1391 22.113 93.4801 22.7167 94.1631 23.1914C94.8461 23.6631 95.8356 23.9005 97.1351 23.9005C97.8036 23.9005 98.4636 23.8008 99.1146 23.6045C99.7631 23.4053 100.323 23.1621 100.79 22.8749V26.5054C99.3186 27.4079 97.6116 27.8591 95.6691 27.8591C94.0341 27.8533 92.6396 27.5661 91.4891 26.9918Z" fill="white"></path><path d="M105.759 26.9923C104.6 26.418 103.717 25.6327 103.108 24.6335C102.5 23.6343 102.193 22.5209 102.193 21.2902C102.193 20.0595 102.497 18.9607 103.108 17.9967C103.719 17.0326 104.597 16.2766 105.751 15.7287C106.901 15.1807 108.275 14.9082 109.867 14.9082C111.46 14.9082 112.834 15.1807 113.984 15.7287C115.135 16.2766 116.013 17.0268 116.615 17.9849C117.218 18.9431 117.519 20.0419 117.519 21.2873C117.519 22.5179 117.218 23.6314 116.615 24.6306C116.013 25.6298 115.132 26.4151 113.973 26.9894C112.814 27.5637 111.445 27.8509 109.865 27.8509C108.284 27.8509 106.915 27.5666 105.759 26.9923ZM111.861 23.353C112.349 22.8549 112.596 22.1956 112.596 21.3752C112.596 20.5547 112.352 19.9013 111.861 19.4178C111.374 18.9314 110.708 18.6882 109.865 18.6882C109.007 18.6882 108.335 18.9314 107.845 19.4178C107.357 19.9042 107.113 20.5547 107.113 21.3752C107.113 22.1956 107.357 22.8549 107.845 23.353C108.333 23.8512 109.007 24.1032 109.865 24.1032C110.708 24.1002 111.374 23.8512 111.861 23.353Z" fill="white"></path><path d="M129.585 15.67V20.1004C129.075 19.7576 128.415 19.5876 127.597 19.5876C126.527 19.5876 125.701 19.9188 125.127 20.581C124.55 21.2432 124.263 22.2746 124.263 23.6694V27.4435H119.343V15.4444H124.163V19.2595C124.43 17.8647 124.863 16.8362 125.46 16.171C126.054 15.5088 126.822 15.1777 127.758 15.1777C128.466 15.1777 129.075 15.3418 129.585 15.67Z" fill="white"></path><path d="M145.932 12.6753V27.4434H141.011V24.7565C140.595 25.7674 139.964 26.538 139.115 27.0654C138.266 27.59 137.216 27.8537 135.971 27.8537C134.858 27.8537 133.888 27.5782 133.059 27.0244C132.23 26.4706 131.59 25.7117 131.14 24.7477C130.692 23.7836 130.465 22.6936 130.465 21.4747C130.451 20.2176 130.689 19.0895 131.18 18.0903C131.668 17.0911 132.359 16.3117 133.248 15.752C134.138 15.1923 135.153 14.911 136.292 14.911C138.636 14.911 140.208 15.9512 141.011 18.0287V12.6753H145.932ZM140.277 23.2709C140.779 22.7727 141.029 22.1252 141.029 21.334C141.029 20.5692 140.785 19.9451 140.297 19.4675C139.809 18.9899 139.141 18.7496 138.3 18.7496C137.471 18.7496 136.809 18.9928 136.312 19.4792C135.816 19.9656 135.569 20.5956 135.569 21.375C135.569 22.1545 135.816 22.7903 136.312 23.2826C136.809 23.7748 137.463 24.021 138.28 24.021C139.109 24.0181 139.775 23.769 140.277 23.2709Z" fill="white"></path><path d="M69.691 16.7215C71.0455 16.7215 72.144 15.7139 72.144 14.4711C72.144 13.2282 71.0455 12.2207 69.691 12.2207C68.336 12.2207 67.238 13.2282 67.238 14.4711C67.238 15.7139 68.336 16.7215 69.691 16.7215Z" fill="white"></path><path d="M67.2361 18.272C68.7391 18.9342 70.6041 18.9635 72.1416 18.272V27.5079H67.2361V18.272Z" fill="white"></path></g><defs><clipPath id="clip0_278_379"><rect width="146" height="40" fill="white"></rect></clipPath></defs></svg>