<svg xmlns="http://www.w3.org/2000/svg" width="40" height="40" viewBox="0 0 40 40" fill="none"><path fill-rule="evenodd" clip-rule="evenodd" d="M20.0002 36.6668C29.2049 36.6668 36.6668 29.2049 36.6668 20.0002C36.6668 10.7954 29.2049 3.3335 20.0002 3.3335C10.7954 3.3335 3.3335 10.7954 3.3335 20.0002C3.3335 29.2049 10.7954 36.6668 20.0002 36.6668ZM29.5857 18.6673C29.8282 19.0133 29.9654 19.4221 29.9809 19.8443C29.9873 20.2576 29.8766 20.6643 29.6616 21.0173C29.4466 21.3703 29.136 21.6553 28.7659 21.8393C28.7828 22.059 28.7828 22.2796 28.7659 22.4993C28.7659 25.8593 24.8509 28.5893 20.0209 28.5893C15.1909 28.5893 11.2759 25.8593 11.2759 22.4993C11.259 22.2796 11.259 22.059 11.2759 21.8393C10.9874 21.7067 10.7311 21.513 10.5249 21.2716C10.3187 21.0302 10.1675 20.7468 10.0817 20.4411C9.99585 20.1354 9.97754 19.8147 10.028 19.5013C10.0784 19.1878 10.1965 18.8891 10.3738 18.6257C10.5512 18.3624 10.7838 18.1408 11.0553 17.9763C11.3268 17.8117 11.6309 17.7082 11.9465 17.6729C12.262 17.6375 12.5814 17.6712 12.8826 17.7716C13.1839 17.872 13.4596 18.0367 13.6909 18.2543C15.4193 17.0821 17.4527 16.4408 19.5409 16.4093L20.6509 11.2043C20.6633 11.144 20.6876 11.0869 20.7224 11.0361C20.7571 10.9853 20.8016 10.9419 20.8532 10.9084C20.9048 10.8749 20.9626 10.852 21.0231 10.841C21.0836 10.83 21.1458 10.8311 21.2059 10.8443L24.8809 11.5793C25.0603 11.271 25.3438 11.0367 25.6805 10.9185C26.0171 10.8004 26.3848 10.806 26.7177 10.9346C27.0505 11.0631 27.3266 11.3061 27.4964 11.6198C27.6662 11.9336 27.7187 12.2976 27.6443 12.6465C27.57 12.9954 27.3737 13.3064 27.0907 13.5237C26.8077 13.7409 26.4565 13.8502 26.1002 13.8319C25.7439 13.8135 25.4058 13.6688 25.1466 13.4237C24.8874 13.1785 24.724 12.849 24.6859 12.4943L21.4759 11.8193L20.5009 16.4993C22.5637 16.5435 24.5695 17.1844 26.2759 18.3443C26.5807 18.0517 26.9636 17.8536 27.3785 17.7738C27.7934 17.6939 28.2226 17.7358 28.6142 17.8944C29.0058 18.0529 29.3432 18.3214 29.5857 18.6673ZM15.4202 20.2836C15.1389 20.5649 14.9809 20.9465 14.9809 21.3443C14.9809 21.7421 15.1389 22.1237 15.4202 22.405C15.7015 22.6863 16.083 22.8443 16.4809 22.8443C16.8787 22.8443 17.2602 22.6863 17.5415 22.405C17.8228 22.1237 17.9809 21.7421 17.9809 21.3443C17.9809 20.9465 17.8228 20.5649 17.5415 20.2836C17.2602 20.0023 16.8787 19.8443 16.4809 19.8443C16.083 19.8443 15.7015 20.0023 15.4202 20.2836ZM19.9909 26.6243C21.3223 26.6795 22.6317 26.2713 23.6959 25.4693V25.5293C23.7398 25.492 23.7756 25.4461 23.801 25.3944C23.8265 25.3428 23.841 25.2864 23.8437 25.2289C23.8464 25.1713 23.8373 25.1138 23.8168 25.06C23.7964 25.0061 23.7651 24.9571 23.7249 24.9158C23.6847 24.8746 23.6364 24.842 23.5831 24.8202C23.5298 24.7985 23.4725 24.7879 23.415 24.7891C23.3574 24.7904 23.3007 24.8035 23.2483 24.8276C23.196 24.8517 23.1492 24.8863 23.1109 24.9293C22.2005 25.5823 21.0946 25.9051 19.9759 25.8443C18.8586 25.8942 17.7577 25.5608 16.8559 24.8993C16.7782 24.8355 16.6795 24.8029 16.5791 24.8078C16.4786 24.8128 16.3837 24.8549 16.3126 24.926C16.2415 24.9971 16.1994 25.0921 16.1944 25.1925C16.1895 25.2929 16.2221 25.3916 16.2859 25.4693C17.3501 26.2713 18.6595 26.6795 19.9909 26.6243ZM22.5925 22.6515C22.8392 22.8163 23.1292 22.9043 23.4259 22.9043L23.4109 22.9643C23.6143 22.9665 23.816 22.9273 24.0038 22.8491C24.1915 22.7709 24.3614 22.6553 24.5031 22.5094C24.6449 22.3635 24.7554 22.1903 24.8281 22.0003C24.9007 21.8103 24.934 21.6075 24.9259 21.4043C24.9259 21.1076 24.8379 20.8176 24.6731 20.5709C24.5083 20.3243 24.274 20.132 23.9999 20.0185C23.7258 19.9049 23.4242 19.8752 23.1332 19.9331C22.8423 19.991 22.575 20.1339 22.3652 20.3436C22.1554 20.5534 22.0126 20.8207 21.9547 21.1117C21.8968 21.4026 21.9265 21.7042 22.0401 21.9783C22.1536 22.2524 22.3458 22.4867 22.5925 22.6515Z" fill="white"></path></svg>