<svg xmlns="http://www.w3.org/2000/svg" width="40" height="40" viewBox="0 0 40 40" fill="none"><circle cx="20.0002" cy="20.0002" r="16.6667" fill="white"></circle><path fill-rule="evenodd" clip-rule="evenodd" d="M29.4169 13.6484C29.7495 13.981 29.9891 14.3949 30.112 14.8489C30.8194 17.6964 30.656 22.1937 30.1257 25.1511C30.0029 25.6051 29.7632 26.019 29.4306 26.3516C29.0981 26.6842 28.6842 26.9238 28.2301 27.0467C26.568 27.5 19.8785 27.5 19.8785 27.5C19.8785 27.5 13.1889 27.5 11.5268 27.0467C11.0728 26.9238 10.6589 26.6842 10.3263 26.3516C9.99375 26.019 9.75409 25.6051 9.63124 25.1511C8.9197 22.3159 9.11475 17.8159 9.6175 14.8626C9.74036 14.4086 9.98001 13.9947 10.3126 13.6621C10.6452 13.3295 11.0591 13.0899 11.5131 12.967C13.1752 12.5137 19.8648 12.5 19.8648 12.5C19.8648 12.5 26.5543 12.5 28.2164 12.9533C28.6704 13.0762 29.0843 13.3158 29.4169 13.6484ZM23.2851 20L17.7356 23.2143V16.7857L23.2851 20Z" fill="#201D1C"></path></svg>